<?xml version="1.0" standalone="no"?><!DOCTYPE svg PUBLIC "-//W3C//DTD SVG 1.1//EN" "http://www.w3.org/Graphics/SVG/1.1/DTD/svg11.dtd"><svg t="1739958062480" class="icon" viewBox="0 0 1024 1024" version="1.1" xmlns="http://www.w3.org/2000/svg" p-id="21356" xmlns:xlink="http://www.w3.org/1999/xlink" width="200" height="200"><path d="M288 682.666667a53.333333 53.333333 0 1 0 0-106.666667 53.333333 53.333333 0 0 0 0 106.666667zM736 682.666667a53.333333 53.333333 0 1 0 0-106.666667 53.333333 53.333333 0 0 0 0 106.666667z" fill="#BFBFBF" p-id="21357"></path><path d="M303.061333 160c-24.789333 0-46.293333 17.066667-51.925333 41.216L201.813333 412.629333a32 32 0 0 1-16.896 21.333334l-14.506666 7.296a96 96 0 0 0-53.12 85.888V725.333333c0 17.664 14.336 32 32 32h42.666666a32 32 0 0 1 32 32v21.333334a53.333333 53.333333 0 0 0 106.666667 0v-21.333334a32 32 0 0 1 32-32h298.666667a32 32 0 0 1 32 32v21.333334a53.333333 53.333333 0 0 0 106.752 0v-21.333334a32 32 0 0 1 32-32h42.581333a32 32 0 0 0 32-32v-198.229333a96 96 0 0 0-53.077333-85.845333l-14.506667-7.253334a32 32 0 0 1-16.896-21.674666l-47.061333-210.602667a53.333333 53.333333 0 0 0-52.053334-41.728H303.061333z m-114.261333 26.709333A117.333333 117.333333 0 0 1 303.061333 96h420.010667a117.333333 117.333333 0 0 1 114.517333 91.733333l43.733334 195.84 0.896 0.426667a160 160 0 0 1 88.448 143.104V725.333333a96 96 0 0 1-96 96h-11.093334a117.376 117.376 0 0 1-233.770666 0H394.24a117.333333 117.333333 0 0 1-233.728 0H149.333333A96 96 0 0 1 53.333333 725.333333v-198.186666A160 160 0 0 1 141.824 384l1.109333-0.554667 45.866667-196.736z" fill="#BFBFBF" p-id="21358"></path><path d="M302.677333 303.786667a74.666667 74.666667 0 0 1 72.874667-58.453334h272.896c34.986667 0 65.28 24.32 72.874667 58.453334l35.242666 158.592a32 32 0 0 1-31.232 38.954666H298.666667a32 32 0 0 1-31.232-38.954666l35.242666-158.592z m72.874667 5.546666a10.666667 10.666667 0 0 0-10.410667 8.362667l-26.581333 119.637333h346.88l-26.581333-119.637333a10.666667 10.666667 0 0 0-10.410667-8.362667H375.552z" fill="#BFBFBF" p-id="21359"></path></svg>