<?xml version="1.0" standalone="no"?><!DOCTYPE svg PUBLIC "-//W3C//DTD SVG 1.1//EN" "http://www.w3.org/Graphics/SVG/1.1/DTD/svg11.dtd"><svg t="1739958098710" class="icon" viewBox="0 0 1024 1024" version="1.1" xmlns="http://www.w3.org/2000/svg" p-id="24725" xmlns:xlink="http://www.w3.org/1999/xlink" width="200" height="200"><path d="M282.564059 498.992702c-39.661268 0-71.809873 32.188566-71.809874 71.899786v63.91758c0 39.71122 32.148605 71.899785 71.809874 71.899786h31.918829c39.661268 0 71.809873-32.188566 71.809873-71.899786v-63.91758c0-39.71122-32.148605-71.899785-71.809873-71.899786h-31.918829z m53.487765 90.121991v27.263375c0 16.943454-13.716605 30.670049-30.630087 30.670049h-13.616703c-16.913483 0-30.630088-13.736585-30.630088-30.670049v-27.263375c0-16.943454 13.716605-30.670049 30.630088-30.670049h13.616703c16.913483 0 30.630088 13.736585 30.630087 30.670049zM720.146732 413.056624c5.644488-8.281912 7.242927-18.891551 4.245853-28.602068l-35.844995-116.935805c-0.41959-1.438595-0.959063-2.84722-1.598439-4.215883-12.6976-27.383259-23.676878-51.040156-54.89639-51.040156h-266.140098c-31.179551 0-41.709268 22.757776-55.116175 51.579629-0.459551 0.969054-0.879141 1.958088-1.248781 2.977093l-40.850107 116.356371a33.543243 33.543243 0 0 0 3.506576 29.341346 29.576117 29.576117 0 0 0 24.665912 13.676644h398.930419c9.780449-0.079922 18.881561-4.995122 24.316254-13.137171z m-73.218498-38.762146c-3.656429 4.775337-9.780449 7.662517-16.364019 7.712468H362.156332c-6.733424-0.059941-12.967337-3.076995-16.593795-8.032156-3.796293-5.105015-4.675434-11.4688-2.357698-17.21319l27.483161-68.293307c0.249756-0.589424 0.529483-1.178849 0.83918-1.748293 9.02119-16.913483 16.104273-30.270439 37.083786-30.270439h179.055141c20.999493 0 28.382283 13.876449 36.933932 29.950751 0.42958 0.80921 0.79922 1.62841 1.068956 2.477581l24.116449 68.622985c2.018029 5.704429 0.949073 11.928351-2.85721 16.78361z" p-id="24726" fill="#BFBFBF"></path><path d="M227.687649 773.33479v2.817249c-0.219785 29.88082-23.237307 54.167102-51.479727 54.167102s-51.479727-24.516059-51.479727-54.646634V514.257795c0-31.509229 27.573073-61.649795 54.89639-77.524293a31.362373 31.362373 0 0 0 13.626693-16.613775l68.742868-191.552937 0.699317-2.048c19.371083-41.929054 33.15762-67.623961 71.110557-67.623961H657.158244l-0.029971 0.029971c37.942946 0 51.729483 25.694907 71.330342 68.193405 0.149854 0.489522 0.309698 0.979044 0.479531 1.468566l68.682927 191.522966c2.4576 6.98318 7.292878 12.867434 13.656664 16.613775 15.664702 9.091122 25.41518 1.908137 35.994848 17.962459h67.064508c-12.128156-38.5024-34.955863-48.232898-64.257249-67.753834L785.393015 206.498341c-0.889132-2.747317-1.918127-5.434693-3.126947-8.022165-19.021424-41.159805-47.743376-103.379044-125.107824-103.379044H333.80402c-77.364449 0-106.0864 62.189268-125.107825 103.379044a64.45106 64.45106 0 0 0-3.126946 8.022165l-64.72679 180.433796C102.350049 412.597073 64.626888 457.593132 64.626888 514.217834v261.414712c0 65.286244 50.071102 118.404371 111.571044 118.404371 51.19001 0 94.437776-36.724137 107.584936-86.635395l210.814127-1.23879v-64.7168H257.748293c-16.593795 0-30.060644 14.31602-30.060644 31.888858z" p-id="24727" fill="#BFBFBF"></path><path d="M814.29479 470.580449c-80.611278 0-146.187239 65.575961-146.187239 146.197229 0 7.682498 0.619395 15.404956 1.828215 23.007532L525.856468 783.864507v118.434342h146.017405v-50.690498h47.663454v-47.663453h47.064039v-48.802342l0.519493-0.039961 1.588448 0.529483c14.73561 4.855259 30.070634 7.312859 45.585483 7.312859 80.601288 0 146.177249-65.575961 146.177249-146.177249s-65.575961-146.187239-146.177249-146.187239z m0 235.719805c-0.239766 0-24.316254-0.049951-41.879102-4.605503-4.285815-1.118907-9.211005-1.688351-14.635708-1.688351-15.265093 0-31.629112 4.52558-37.962926 6.473678l-9.880352 3.037034v37.793093h-47.064039v47.663454h-47.663453v50.690497h-32.698069v-38.322576L717.998829 671.863883c6.313834-6.313834 13.007298-17.542868 8.99122-35.195629a90.002107 90.002107 0 0 1-2.227825-19.890576c0-49.371785 40.16078-89.532566 89.532566-89.532566 23.866693 0 46.334751 9.320898 63.268215 26.254361 16.933463 16.933463 26.254361 39.401522 26.254361 63.278205 0 49.361795-40.16078 89.522576-89.532566 89.522576z" p-id="24728" fill="#BFBFBF"></path><path d="M818.700488 618.89561m-24.97561 0a24.97561 24.97561 0 1 0 49.95122 0 24.97561 24.97561 0 1 0-49.95122 0Z" p-id="24729" fill="#BFBFBF"></path></svg>