<?xml version="1.0" standalone="no"?><!DOCTYPE svg PUBLIC "-//W3C//DTD SVG 1.1//EN" "http://www.w3.org/Graphics/SVG/1.1/DTD/svg11.dtd"><svg t="1739957939920" class="icon" viewBox="0 0 1024 1024" version="1.1" xmlns="http://www.w3.org/2000/svg" p-id="10923" xmlns:xlink="http://www.w3.org/1999/xlink" width="200" height="200"><path d="M864.86 616.25V375.2c0-11.48-6.15-22.07-16.11-27.77l-213.37-122.1c2.68-10.3 4.11-21.1 4.11-32.22 0-70.58-57.42-128-128-128s-128 57.42-128 128c0 11.13 1.43 21.92 4.11 32.22l-213.37 122.1a32.006 32.006 0 0 0-16.11 27.77v241.32c-54.45 14.72-94.64 64.54-94.64 123.58 0 70.58 57.42 128 128 128 34.69 0 66.19-13.88 89.27-36.36l214.84 122.94c4.92 2.82 10.41 4.23 15.89 4.23s10.97-1.41 15.89-4.23l215.47-123.3c23.11 22.7 54.77 36.72 89.64 36.72 70.58 0 128-57.42 128-128 0-59.4-40.68-109.48-95.64-123.85zM447.55 191.02c1.1-34.33 29.36-61.92 63.95-61.92s62.84 27.59 63.95 61.92c0.02 0.69 0.05 1.38 0.05 2.08 0 22.92-12.12 43.06-30.28 54.36-9.8 6.1-21.35 9.64-33.72 9.64s-23.92-3.54-33.72-9.64c-18.16-11.31-30.28-31.44-30.28-54.36 0-0.7 0.03-1.39 0.05-2.08z m-22.44 422.76l-4.79-2.74V507.17l91.18-52.18 91.18 52.18v103.87l-91.18 52.18-86.39-49.44zM222.14 393.76l196.62-112.52c16.03 16.86 36.61 29.37 59.74 35.54v83.35l-106.07 60.7a32.006 32.006 0 0 0-16.11 27.77v120.76l-70.37 44.44c-16.8-18.38-38.88-31.84-63.82-37.99V393.75zM191.5 804.11c-35.29 0-64-28.71-64-64 0-23.07 12.28-43.33 30.64-54.59a63.642 63.642 0 0 1 33.36-9.41 63.59 63.59 0 0 1 30.64 7.83c19.86 10.88 33.36 31.98 33.36 56.17 0 1.14-0.03 2.26-0.09 3.39-1.23 23.46-15.16 43.6-35.02 53.7a63.658 63.658 0 0 1-28.89 6.92z m320 85.94L314.06 777.06c3.53-11.7 5.44-24.11 5.44-36.95 0-10.19-1.2-20.09-3.46-29.6l70.94-44.81 108.62 62.16c4.92 2.82 10.41 4.23 15.89 4.23s10.97-1.41 15.89-4.23l106.21-60.78 75.06 40.58a127.716 127.716 0 0 0-4.17 32.45c0 12.66 1.86 24.9 5.3 36.46l-198.3 113.48z m228.42-238.24l-73.24-39.59V488.63c0-11.48-6.15-22.07-16.11-27.77L542.5 399.01v-81.69c23.95-5.98 45.24-18.71 61.74-36.06l196.62 112.52v222.31c-23.61 6.02-44.61 18.63-60.94 35.73z m92.58 152.31c-10.6 0-20.6-2.61-29.42-7.19-19.74-10.26-33.49-30.49-34.51-53.99-0.04-0.94-0.07-1.88-0.07-2.82 0-23.79 13.05-44.57 32.36-55.6 9.34-5.34 20.13-8.4 31.64-8.4s22.86 3.22 32.36 8.82c18.91 11.13 31.64 31.69 31.64 55.18 0 35.29-28.71 64-64 64z" p-id="10924" fill="#BFBFBF"></path></svg>