<?xml version="1.0" standalone="no"?><!DOCTYPE svg PUBLIC "-//W3C//DTD SVG 1.1//EN" "http://www.w3.org/Graphics/SVG/1.1/DTD/svg11.dtd"><svg t="1739958003736" class="icon" viewBox="0 0 1028 1024" version="1.1" xmlns="http://www.w3.org/2000/svg" p-id="17283" xmlns:xlink="http://www.w3.org/1999/xlink" width="200.78125" height="200"><path d="M202.038878 454.993251h-42.147373a13.356804 13.356804 0 0 0-13.356805 13.356804v310.970273a13.356804 13.356804 0 0 0 13.356805 13.356804h42.147373a13.356804 13.356804 0 0 0 13.345329-13.356804v-310.970273a13.356804 13.356804 0 0 0-13.345329-13.356804zM423.504791 454.993251h-42.147373a13.356804 13.356804 0 0 0-13.356804 13.356804v310.970273a13.356804 13.356804 0 0 0 13.356804 13.356804h42.147373a13.356804 13.356804 0 0 0 13.34533-13.356804v-310.970273a13.356804 13.356804 0 0 0-13.34533-13.356804zM644.970705 454.993251h-42.147373a13.356804 13.356804 0 0 0-13.356805 13.356804v310.970273a13.356804 13.356804 0 0 0 13.356805 13.356804h42.147373a13.356804 13.356804 0 0 0 13.345329-13.356804v-310.970273a13.356804 13.356804 0 0 0-13.345329-13.356804zM866.436618 454.993251h-42.147373a13.356804 13.356804 0 0 0-13.356804 13.356804v310.970273a13.356804 13.356804 0 0 0 13.356804 13.356804h42.147373a13.356804 13.356804 0 0 0 13.34533-13.356804v-310.970273a13.356804 13.356804 0 0 0-13.34533-13.356804zM488.326602 9.054995L86.842178 337.329444a40.162212 40.162212 0 0 0-14.72232 30.982278 40.093363 40.093363 0 0 0 40.093363 40.162212h801.982005a40.093363 40.093363 0 0 0 40.093363-40.162212v-0.826194a40.162212 40.162212 0 0 0-14.722319-31.051128L539.091638 9.020571a40.162212 40.162212 0 0 0-50.765036 0.034424zM192.801569 339.624427L513.70912 77.238957l320.907551 262.38547z m834.226524 68.356086v0.493421h0.608171z" p-id="17284" fill="#BFBFBF"></path><path d="M518.092539 176.037999l10.166777 20.654852a4.85389 4.85389 0 0 0 3.660499 2.650706l22.731812 3.304777a4.865365 4.865365 0 0 1 2.696606 8.28489l-16.455033 16.064885a4.85389 4.85389 0 0 0-1.39994 4.291619l3.889998 22.651488a4.85389 4.85389 0 0 1-7.0456 5.117813l-20.345029-10.694623a4.842415 4.842415 0 0 0-4.521118 0l-20.333554 10.694623a4.85389 4.85389 0 0 1-7.0456-5.117813l3.889997-22.651488a4.85389 4.85389 0 0 0-1.39994-4.291619l-16.455032-16.064885a4.85389 4.85389 0 0 1 2.685131-8.28489l22.743287-3.304777a4.85389 4.85389 0 0 0 3.660499-2.650706l10.166777-20.654852a4.865365 4.865365 0 0 1 8.709463 0zM941.241608 907.40336l9.443857 47.747133H77.857317l9.443858-47.747133h853.940433m33.954281-68.849507H53.346893a27.539803 27.539803 0 0 0-27.20703 23.282609L0.332773 992.203003a27.539803 27.539803 0 0 0 27.218505 31.796997h973.440227a27.539803 27.539803 0 0 0 27.218505-31.796997l-25.80709-130.366541a27.539803 27.539803 0 0 0-27.207031-23.282609z" p-id="17285" fill="#BFBFBF"></path></svg>