<?xml version="1.0" standalone="no"?><!DOCTYPE svg PUBLIC "-//W3C//DTD SVG 1.1//EN" "http://www.w3.org/Graphics/SVG/1.1/DTD/svg11.dtd"><svg t="1739957986715" class="icon" viewBox="0 0 1024 1024" version="1.1" xmlns="http://www.w3.org/2000/svg" p-id="15002" xmlns:xlink="http://www.w3.org/1999/xlink" width="200" height="200"><path d="M905.9328 489.3696a26.4192 26.4192 0 0 0 0-2.9696v-276.48A66.6624 66.6624 0 0 0 839.68 143.36H184.32a66.6624 66.6624 0 0 0-66.56 66.56v276.48a26.4192 26.4192 0 0 0 0 2.9696A178.2784 178.2784 0 0 0 71.68 609.28v204.8a66.56 66.56 0 0 0 133.12 0V798.72h614.4v15.36a66.56 66.56 0 0 0 133.12 0v-204.8a178.2784 178.2784 0 0 0-46.3872-119.9104zM250.88 481.28h522.24A128.2048 128.2048 0 0 1 901.12 609.28V645.12H122.88v-35.84A128.2048 128.2048 0 0 1 250.88 481.28z m286.72-87.04a14.0288 14.0288 0 0 1 11.1616-15.36h192.7168a14.0288 14.0288 0 0 1 11.1616 15.36V430.08h-215.04z m-51.2 35.84h-215.04v-35.84a14.0288 14.0288 0 0 1 11.1616-15.36h192.7168a14.0288 14.0288 0 0 1 11.1616 15.36zM184.32 194.56h655.36a15.5648 15.5648 0 0 1 15.36 15.36V450.56a175.4112 175.4112 0 0 0-51.2-17.1008V394.24a64.6144 64.6144 0 0 0-62.3616-66.56H548.7616A59.1872 59.1872 0 0 0 512 340.5824 59.1872 59.1872 0 0 0 475.2384 327.68H282.5216a64.6144 64.6144 0 0 0-62.3616 66.56v38.7072a175.4112 175.4112 0 0 0-51.2 17.1008V209.92A15.5648 15.5648 0 0 1 184.32 194.56z m716.8 619.52a15.36 15.36 0 0 1-30.72 0v-40.96a25.6 25.6 0 0 0-25.6-25.6h-665.6a25.6 25.6 0 0 0-25.6 25.6v40.96a15.36 15.36 0 0 1-30.72 0V696.32h778.24z" fill="#BFBFBF" p-id="15003"></path></svg>