<?xml version="1.0" standalone="no"?><!DOCTYPE svg PUBLIC "-//W3C//DTD SVG 1.1//EN" "http://www.w3.org/Graphics/SVG/1.1/DTD/svg11.dtd"><svg t="1744716178086" class="icon" viewBox="0 0 1024 1024" version="1.1" xmlns="http://www.w3.org/2000/svg" p-id="3570" xmlns:xlink="http://www.w3.org/1999/xlink" width="200" height="200"><path d="M930.625362 900.285h-25.172779V589.616069c0-16.986509-8.493255-39.498751-28.24263-47.992006L623.12861 375.340462V108.161087l-0.306985-7.572299c-11.972419-37.04287-39.294094-40.419706-70.29959-34.689318L154.362346 184.395723c-22.61457 8.493255-39.498751 31.107825-39.498751 56.48526v659.506346h-23.126211c-16.986509 0-28.24263 14.121315-28.24263 28.24263 0 16.986509 11.256121 28.24263 28.24263 28.24263h60.066753c5.935045 1.841911 778.923554 0 778.923554 0 16.986509 0 28.24263-11.256121 28.24263-28.24263-0.102328-17.088838-11.358449-28.344959-28.344959-28.344959z m-81.658039-313.431797v313.431797H623.12861V440.011992l225.838713 146.841211zM171.246527 240.778655l395.294494-118.598581V900.285H171.246527v-659.506345z" fill="#BFBFBF" p-id="3571"></path><path d="M284.217048 392.019986h169.455781c16.986509 0 28.24263-11.256121 28.24263-28.24263s-11.256121-28.24263-28.24263-28.24263H284.217048c-16.986509 0-28.24263 11.256121-28.24263 28.24263 0 16.884181 11.358449 28.24263 28.24263 28.24263zM453.672829 504.990507H284.217048c-16.986509 0-28.24263 11.256121-28.24263 28.24263s11.256121 28.24263 28.24263 28.24263h169.455781c16.986509 0 28.24263-11.256121 28.24263-28.24263s-11.358449-28.24263-28.24263-28.24263zM453.672829 674.343959H284.217048c-16.986509 0-28.24263 11.256121-28.24263 28.24263s11.256121 28.24263 28.24263 28.242631h169.455781c16.986509 0 28.24263-11.256121 28.24263-28.242631 0-16.884181-11.358449-28.24263-28.24263-28.24263zM707.8565 730.82922h56.485261c16.986509 0 28.24263-11.256121 28.24263-28.242631s-11.256121-28.24263-28.24263-28.24263h-56.485261c-16.986509 0-28.24263 11.256121-28.24263 28.24263s11.256121 28.24263 28.24263 28.242631z" fill="#BFBFBF" p-id="3572"></path></svg>